HIERARCHY
ROOT Hips
{
	OFFSET 0.00000 0.00000 0.00000
	CHANNELS 6 Xposition Yposition Zposition Zrotation Yrotation Xrotation 
	JOINT LHipJoint
	{
		OFFSET 0 0 0
		CHANNELS 3 Zrotation Yrotation Xrotation
		JOINT LeftHip
		{
			OFFSET 1.61024 -1.73873 0.75100
			CHANNELS 3 Zrotation Yrotation Xrotation
			JOINT LeftKnee
			{
				OFFSET 2.29819 -6.31424 0.00000
				CHANNELS 3 Zrotation Yrotation Xrotation
				JOINT LeftAnkle
				{
					OFFSET 2.76618 -7.60002 0.00000
					CHANNELS 3 Zrotation Yrotation Xrotation
					JOINT LeftToe
					{
						OFFSET 0.16838 -0.46263 2.02361
						CHANNELS 3 Zrotation Yrotation Xrotation
						End Site
						{
							OFFSET 0.00000 -0.00000 1.04662
						}
					}
				}
			}
		}
	}
	JOINT RHipJoint
	{
		OFFSET 0 0 0
		CHANNELS 3 Zrotation Yrotation Xrotation
		JOINT RightHip
		{
			OFFSET -1.46153 -1.73873 0.75100
			CHANNELS 3 Zrotation Yrotation Xrotation
			JOINT RightKnee
			{
				OFFSET -2.38373 -6.54924 0.00000
				CHANNELS 3 Zrotation Yrotation Xrotation
				JOINT RightAnkle
				{
					OFFSET -2.80314 -7.70157 0.00000
					CHANNELS 3 Zrotation Yrotation Xrotation
					JOINT RightToe
					{
						OFFSET -0.16142 -0.44349 2.02101
						CHANNELS 3 Zrotation Yrotation Xrotation
						End Site
						{
							OFFSET -0.00000 -0.00000 1.04381
						}
					}
				}
			}
		}
	}
	JOINT lowerback
	{
		OFFSET 0 0 0
		CHANNELS 3 Zrotation Yrotation Xrotation
		JOINT Chest
		{
			OFFSET -0.01629 1.66985 0.14750
			CHANNELS 3 Zrotation Yrotation Xrotation
			JOINT Chest2
			{
				OFFSET 0.02086 1.62378 0.20980
				CHANNELS 3 Zrotation Yrotation Xrotation
				JOINT lowerneck
				{
					OFFSET 0 0 0
					CHANNELS 3 Zrotation Yrotation Xrotation
					JOINT Neck
					{
						OFFSET -0.05690 1.78719 0.08702
						CHANNELS 3 Zrotation Yrotation Xrotation
						JOINT Head
						{
							OFFSET 0.16035 1.73871 -0.38470
							CHANNELS 3 Zrotation Yrotation Xrotation
							End Site
							{
								OFFSET 0.05645 1.80914 -0.14081
							}
						}
					}
				}
				JOINT LeftCollar
				{
					OFFSET 0 0 0
					CHANNELS 3 Zrotation Yrotation Xrotation
					JOINT LeftShoulder
					{
						OFFSET 2.83089 1.66494 -0.46008
CHANNELS 3 Zrotation Xrotation Yrotation
						JOINT LeftElbow
						{
OFFSET 0 -5.548930 -0.000000
CHANNELS 3 Zrotation Xrotation Yrotation
							JOINT LeftWrist
							{
OFFSET 0 -3.028980 -0.000000
CHANNELS 3 Zrotation Xrotation Yrotation
								JOINT lhand
								{
									OFFSET 0 0 0
CHANNELS 3 Zrotation Xrotation Yrotation
									JOINT LFingers
									{
OFFSET 0 -0.640950 -0.000000
CHANNELS 3 Zrotation Xrotation Yrotation
										End Site
										{
OFFSET 0 -0.516750 -0.000000
										}
									}
								}
								JOINT LThumb
								{
OFFSET 0 0.000000 0.000000
CHANNELS 3 Zrotation Xrotation Yrotation
									End Site
									{
OFFSET 0 -0.524640 0.524640
									}
								}
							}
						}
					}
				}
				JOINT RightCollar
				{
					OFFSET 0 0 0
					CHANNELS 3 Zrotation Yrotation Xrotation
					JOINT RightShoulder
					{
						OFFSET -2.84442 1.45761 -0.18088
CHANNELS 3 Zrotation Xrotation Yrotation
						JOINT RightElbow
						{
OFFSET 0 -5.351900 -0.000000
CHANNELS 3 Zrotation Xrotation Yrotation
							JOINT RightWrist
							{
OFFSET 0 -3.025310 -0.000000
CHANNELS 3 Zrotation Xrotation Yrotation
								JOINT rhand
								{
									OFFSET 0 0 0
CHANNELS 3 Zrotation Xrotation Yrotation
									JOINT RFingers
									{
OFFSET 0 -0.783890 -0.000000
CHANNELS 3 Zrotation Xrotation Yrotation
										End Site
										{
OFFSET 0 -0.631990 -0.000000
										}
									}
								}
								JOINT RThumb
								{
OFFSET 0 0.000000 0.000000
CHANNELS 3 Zrotation Xrotation Yrotation
									End Site
									{
OFFSET 0 -0.641640 0.641640
									}
								}
							}
						}
					}
				}
			}
		}
	}
}
MOTION
Frames: 8
Frame Time: 0.008333333333333333
-1.893200 17.621700 2.884400 -25.942100 63.734600 -1.271400 0.000000 0.000000 0.000000 6.791200 -17.975800 -18.953000 1.033700 6.466800 18.145100 2.600500 26.817400 -48.510700 0.279800 3.402200 9.400700 0.000000 0.000000 0.000000 33.056400 21.879800 -25.683700 -0.331900 -3.702500 10.241100 0.211700 8.259300 1.457500 -0.277300 3.387300 -9.358900 -9.272600 2.400900 8.913500 -11.880800 2.263100 1.073500 -7.772600 1.374300 -3.740000 -1.243000 7.424600 -12.566900 8.976800 9.991400 1.347600 3.729200 5.414000 2.083900 0.000000 -0.000000 0.000000 -43.808900 -44.428600 -57.546900 132.735400 -51.830900 95.993700 60.075200 55.721000 -25.496500 0.000000 0.000000 0.000000 -7.125000 0.000000 0.000000 48.905300 67.566300 -29.187600 0.000000 -0.000000 0.000000 16.362000 -88.179300 120.143400 -89.565000 -59.999300 -59.623300 24.017400 -67.650400 -10.982900 0.000000 0.000000 0.000000 7.125000 0.000000 -0.000000 33.463700 18.123300 26.356300
-1.844924 17.612185 2.925167 -29.324456 64.602921 -4.468880 0.000000 0.000000 0.000000 8.282521 -17.993286 -19.617560 1.123629 6.733173 18.927273 2.099497 27.112848 -46.976859 0.149552 2.489007 6.859249 0.000000 0.000000 0.000000 34.361141 21.263825 -24.634199 -0.233805 -3.112058 8.590844 0.177537 7.488617 1.907108 -0.211110 2.957510 -8.160650 -9.924527 3.179990 8.274751 -12.212679 3.325324 0.805085 -7.884698 1.919428 -3.611503 -1.318167 6.969967 -12.644279 11.148854 9.347002 1.974553 4.056220 5.229243 2.030693 0.000000 0.000000 0.000000 -43.050474 -44.480642 -56.755940 133.950093 -51.272574 96.945027 61.924045 55.107635 -24.832476 0.000000 0.000000 0.000000 -7.125000 0.000000 0.000000 52.619978 67.336834 -31.616074 0.000000 0.000000 0.000000 26.312228 -87.458724 129.871592 -89.283631 -59.998068 -59.379662 23.472296 -67.375172 -10.672575 0.000000 0.000000 0.000000 7.125000 0.000000 0.000000 33.258808 18.477414 25.776635
-1.790941 17.607038 2.944555 -31.947807 65.311558 -7.235408 0.000000 0.000000 0.000000 9.279867 -18.976926 -19.490103 1.187628 6.915764 19.466067 2.223589 27.005917 -47.329880 0.138591 2.399095 6.609903 0.000000 0.000000 0.000000 34.991793 21.244562 -23.371265 -0.166769 -2.631008 7.253194 0.118764 6.102333 2.031131 -0.190675 2.811941 -7.755715 -10.150894 4.704070 7.875609 -13.143430 5.327503 0.150075 -9.079907 2.941493 -3.888469 -0.163957 5.932916 -10.257247 12.973112 7.975010 1.232830 4.399790 4.564401 1.543335 0.000000 0.000000 0.000000 -41.404173 -42.516869 -57.073182 135.814347 -50.362938 98.390088 61.122863 47.567665 -21.145601 0.000000 0.000000 0.000000 -7.125000 0.000000 0.000000 45.034680 62.870244 -21.774322 0.000000 0.000000 0.000000 5.201164 -86.247715 107.049779 -89.246638 -59.997825 -59.347582 23.030163 -66.738597 -10.228873 0.000000 0.000000 0.000000 7.125000 0.000000 0.000000 33.136558 18.934833 25.201788
-1.732469 17.600007 2.952962 -35.544082 66.301895 -11.199369 0.000000 0.000000 0.000000 10.305245 -19.192961 -19.679328 1.268470 7.138599 20.126607 1.771175 27.169127 -45.795990 0.066545 1.658375 4.562533 0.000000 0.000000 0.000000 36.052038 20.604784 -21.559768 -0.085583 -1.885514 5.189341 0.073128 4.815462 2.262969 -0.177737 2.715325 -7.487280 -11.475752 5.555635 7.286217 -12.952378 6.473314 0.216391 -8.193697 3.523869 -3.559815 0.206939 5.516764 -10.579855 14.519159 7.341352 1.751861 4.677409 4.372902 1.724158 0.000000 0.000000 0.000000 -40.939025 -42.926568 -55.965944 136.696964 -49.909462 99.067669 60.026172 40.014467 -15.955744 0.000000 0.000000 0.000000 -7.125000 0.000000 0.000000 36.999592 55.616558 -10.707012 0.000000 0.000000 0.000000 19.490379 -85.937990 120.975127 -89.267098 -59.997866 -59.365254 22.515299 -66.625073 -9.547224 0.000000 0.000000 0.000000 7.125000 0.000000 0.000000 33.032089 19.612797 24.443067
-1.673040 17.598162 2.938071 -39.787600 67.620374 -15.759445 0.000000 0.000000 0.000000 11.230987 -18.847934 -20.451665 1.343224 7.337785 20.720095 0.890514 27.612441 -42.732887 0.000409 0.112853 0.310016 0.000000 0.000000 0.000000 37.000225 19.581806 -20.019690 -0.031352 -1.139491 3.132692 0.038678 3.616693 2.333446 -0.260380 3.282777 -9.067094 -13.085935 5.489218 7.213296 -12.102189 6.360319 0.817834 -6.307628 3.454930 -3.145302 -1.267344 5.616525 -14.009593 16.073320 7.369915 3.359390 5.597832 4.660492 2.658096 0.000000 0.000000 0.000000 -40.500526 -45.889523 -53.678586 138.160154 -49.122775 100.180602 59.872069 37.598617 -15.384591 0.000000 0.000000 0.000000 -7.125000 0.000000 0.000000 36.196272 54.750232 -9.606741 0.000000 0.000000 0.000000 58.043469 -84.495978 160.181844 -88.710252 -59.993658 -58.883091 22.119680 -65.270040 -9.380753 0.000000 0.000000 0.000000 7.125000 0.000000 0.000000 32.861491 19.810247 24.070334
-1.618819 17.592712 2.882533 -45.008801 69.256549 -21.108904 0.000000 0.000000 0.000000 12.203732 -19.399700 -21.532943 1.409420 7.509037 21.232497 0.577583 27.071439 -40.717102 0.001566 -0.211461 -0.581079 0.000000 0.000000 0.000000 37.465830 18.429638 -19.784656 -0.016169 -0.819410 2.251989 0.015970 2.502581 2.092644 -0.284816 3.432289 -9.484740 -13.196699 5.897628 7.362694 -12.018507 6.859703 0.764636 -6.245054 3.708624 -3.303536 -1.352131 5.168582 -13.855443 17.399671 6.740855 3.728217 6.009339 4.453474 2.767596 0.000000 0.000000 0.000000 -39.175300 -45.845275 -51.805180 139.691322 -48.251712 101.330822 58.997323 35.249286 -15.545319 0.000000 0.000000 0.000000 -7.125000 0.000000 0.000000 35.047215 54.658101 -9.156562 0.000000 0.000000 0.000000 59.599491 -83.218582 161.338744 -88.499393 -59.991470 -58.700454 21.341953 -64.126533 -9.527406 0.000000 0.000000 0.000000 7.125000 0.000000 0.000000 32.404662 19.767883 23.617999
-1.580763 17.585241 2.833004 -51.653361 70.723641 -28.046621 0.000000 0.000000 0.000000 13.189664 -18.807863 -23.183312 1.528485 7.805820 22.125758 -0.001918 26.312269 -36.909272 0.041641 -1.317170 -3.621938 0.000000 0.000000 0.000000 38.333595 16.954561 -18.915651 -0.001370 -0.235085 0.645872 -0.002669 1.225037 2.076760 -0.314467 3.605207 -9.968460 -13.160754 6.418343 8.055275 -11.981676 7.401618 0.711272 -6.401064 3.987743 -3.744732 -1.337501 4.501831 -13.511748 18.745090 5.830730 3.888634 6.389022 4.098262 2.826935 0.000000 0.000000 0.000000 -38.040222 -46.406971 -50.801967 140.482222 -47.781593 101.918664 59.050527 35.546531 -17.484855 0.000000 0.000000 0.000000 -7.125000 0.000000 0.000000 36.937982 57.375991 -12.317106 0.000000 0.000000 0.000000 57.593128 -82.464329 158.194347 -88.124560 -59.986704 -58.375926 19.488172 -62.436003 -10.201642 0.000000 0.000000 0.000000 7.125000 0.000000 0.000000 31.220748 19.350517 22.746961
-1.504463 17.584542 2.773252 -58.749004 71.782087 -35.328099 0.000000 0.000000 0.000000 14.085258 -19.170742 -24.187622 1.616963 8.017981 22.768566 -0.324446 25.945933 -34.611336 0.146770 -2.459554 -6.778054 0.000000 0.000000 0.000000 38.925692 15.808999 -18.579139 0.000000 0.000000 0.000000 -0.006300 0.121698 1.545920 -0.327902 3.680252 -10.178830 -13.066089 6.791984 8.088376 -11.928286 7.912625 0.727114 -6.464973 4.240679 -3.734760 -1.523606 3.996254 -14.183605 20.260671 5.005176 4.830186 6.939138 3.891160 3.283836 0.000000 0.000000 0.000000 -36.744284 -47.202273 -49.642896 142.031656 -46.819004 103.057447 58.764239 35.471581 -20.458690 0.000000 0.000000 0.000000 -7.125000 0.000000 0.000000 39.491448 61.181486 -17.042744 0.000000 0.000000 0.000000 55.432300 -81.499347 154.735703 -88.331951 -59.989496 -58.555438 17.932151 -61.456685 -10.618076 0.000000 0.000000 0.000000 7.125000 0.000000 0.000000 30.246145 19.110020 21.956935
